<svg width="160" height="148" viewBox="0 0 160 148" fill="none" xmlns="http://www.w3.org/2000/svg">
<ellipse cx="56.8558" cy="61.1679" rx="55.8558" ry="59.6298" fill="#1D8848" stroke="#FFB902" stroke-width="2" stroke-linecap="round" stroke-linejoin="round"/>
<path d="M56.8555 22.6729L56.8555 146.461" stroke="#FFB902" stroke-width="2" stroke-linecap="round" stroke-linejoin="round"/>
<path d="M44.7793 30.1582L56.8562 46.6696" stroke="#FFB902" stroke-width="2" stroke-linecap="round" stroke-linejoin="round"/>
<path d="M29.6836 46.6699L56.8567 66.4836" stroke="#FFB902" stroke-width="2" stroke-linecap="round" stroke-linejoin="round"/>
<path d="M28.1738 70.8867L55.3469 90.7004" stroke="#FFB902" stroke-width="2" stroke-linecap="round" stroke-linejoin="round"/>
<path d="M68.9336 30.1582L56.8567 46.6696" stroke="#FFB902" stroke-width="2" stroke-linecap="round" stroke-linejoin="round"/>
<path d="M84.0293 46.6699L56.8562 66.4836" stroke="#FFB902" stroke-width="2" stroke-linecap="round" stroke-linejoin="round"/>
<path d="M85.5391 70.8867L58.366 90.7004" stroke="#FFB902" stroke-width="2" stroke-linecap="round" stroke-linejoin="round"/>
<path d="M145.066 119.285L145.066 119.285L145.072 119.279C147.385 116.844 149.349 114.748 150.962 112.991C152.648 111.209 154.02 109.508 155.066 107.888C156.172 106.205 156.972 104.457 157.454 102.646C157.989 100.828 158.246 98.6867 158.246 96.2416C158.246 94.2021 157.814 92.2599 156.95 90.4259C156.138 88.5434 154.947 86.8975 153.389 85.4932C151.817 84.0756 149.885 82.9911 147.618 82.2243C145.332 81.402 142.779 81 139.972 81C137.453 81 135.097 81.4063 132.915 82.2294C130.752 82.9968 128.838 84.0759 127.183 85.4715L127.171 85.482C125.559 86.8866 124.293 88.5553 123.379 90.4814C122.563 92.2007 122.109 94.0245 122.017 95.9448L123 95.9918L122.017 95.9448C122.006 96.1884 122 96.4334 122 96.6798C122 97.2321 122.448 97.6798 123 97.6798H130.543C131.057 97.6798 131.487 97.2905 131.538 96.7792C131.684 95.3168 131.927 93.931 132.266 92.6208L132.266 92.6208L132.268 92.6127C132.595 91.2995 133.078 90.1981 133.702 89.2906C134.372 88.3405 135.19 87.5925 136.161 87.0357C137.132 86.5065 138.386 86.2135 139.972 86.2135C142.576 86.2135 144.639 87.1069 146.246 88.8796L146.246 88.8797L146.256 88.8897C147.906 90.6603 148.778 93.0737 148.778 96.2416C148.778 98.2553 148.4 100.225 147.641 102.156C146.86 104.14 145.883 106.055 144.71 107.902C143.528 109.761 142.224 111.524 140.796 113.192L140.785 113.206C139.385 114.9 138.061 116.473 136.812 117.924L122.568 133.321C122.298 133.613 122.226 134.036 122.385 134.401C122.545 134.765 122.904 135 123.302 135H158C158.552 135 159 134.552 159 134V128.742C159 128.189 158.552 127.742 158 127.742H136.897L145.066 119.285Z" stroke="#FFB902" stroke-width="2" stroke-linecap="round" stroke-linejoin="round"/>
</svg>
