<svg width="169" height="163" viewBox="0 0 169 163" fill="none" xmlns="http://www.w3.org/2000/svg">
<path d="M75 126H74V127V151C74 154.866 77.134 158 81 158H88C91.866 158 95 154.866 95 151V127V126H94H75Z" fill="#BB8A52" stroke="black" stroke-width="2"/>
<mask id="path-2-outside-1" maskUnits="userSpaceOnUse" x="0" y="0.579102" width="169" height="113" fill="black">
<rect fill="white" y="0.579102" width="169" height="113"/>
<path fill-rule="evenodd" clip-rule="evenodd" d="M153.277 110.363L165.865 97.7753L96.528 28.4382L108.799 16.1668L96.2119 3.57925L83.9405 15.8507L71.6689 3.5791L59.0813 16.1667L71.3529 28.4382L3 96.7911L15.5876 109.379L83.9405 41.0258L153.277 110.363Z"/>
</mask>
<path fill-rule="evenodd" clip-rule="evenodd" d="M153.277 110.363L165.865 97.7753L96.528 28.4382L108.799 16.1668L96.2119 3.57925L83.9405 15.8507L71.6689 3.5791L59.0813 16.1667L71.3529 28.4382L3 96.7911L15.5876 109.379L83.9405 41.0258L153.277 110.363Z" fill="#BB8A52"/>
<path d="M165.865 97.7753L167.279 99.1895L168.693 97.7753L167.279 96.361L165.865 97.7753ZM153.277 110.363L151.863 111.777L153.277 113.191L154.692 111.777L153.277 110.363ZM96.528 28.4382L95.1138 27.024L93.6996 28.4382L95.1138 29.8525L96.528 28.4382ZM108.799 16.1668L110.214 17.581L111.628 16.1668L110.214 14.7526L108.799 16.1668ZM96.2119 3.57925L97.6261 2.16504L96.2119 0.750823L94.7977 2.16504L96.2119 3.57925ZM83.9405 15.8507L82.5262 17.2649L83.9405 18.6791L85.3547 17.2649L83.9405 15.8507ZM71.6689 3.5791L73.0831 2.16489L71.6689 0.750674L70.2547 2.16489L71.6689 3.5791ZM59.0813 16.1667L57.6671 14.7525L56.2529 16.1667L57.6671 17.5809L59.0813 16.1667ZM71.3529 28.4382L72.7671 29.8525L74.1813 28.4382L72.7671 27.024L71.3529 28.4382ZM3 96.7911L1.58579 95.3769L0.171573 96.7911L1.58579 98.2053L3 96.7911ZM15.5876 109.379L14.1734 110.793L15.5876 112.207L17.0018 110.793L15.5876 109.379ZM83.9405 41.0258L85.3547 39.6116L83.9405 38.1974L82.5262 39.6116L83.9405 41.0258ZM164.451 96.361L151.863 108.949L154.692 111.777L167.279 99.1895L164.451 96.361ZM95.1138 29.8525L164.451 99.1895L167.279 96.361L97.9422 27.024L95.1138 29.8525ZM107.385 14.7526L95.1138 27.024L97.9422 29.8525L110.214 17.581L107.385 14.7526ZM94.7977 4.99346L107.385 17.581L110.214 14.7526L97.6261 2.16504L94.7977 4.99346ZM85.3547 17.2649L97.6261 4.99346L94.7977 2.16504L82.5262 14.4365L85.3547 17.2649ZM70.2547 4.99332L82.5262 17.2649L85.3547 14.4365L73.0831 2.16489L70.2547 4.99332ZM60.4955 17.5809L73.0831 4.99331L70.2547 2.16489L57.6671 14.7525L60.4955 17.5809ZM72.7671 27.024L60.4955 14.7525L57.6671 17.5809L69.9387 29.8525L72.7671 27.024ZM4.41421 98.2053L72.7671 29.8525L69.9387 27.024L1.58579 95.3769L4.41421 98.2053ZM17.0018 107.964L4.41421 95.3769L1.58579 98.2053L14.1734 110.793L17.0018 107.964ZM82.5262 39.6116L14.1734 107.964L17.0018 110.793L85.3547 42.44L82.5262 39.6116ZM154.692 108.949L85.3547 39.6116L82.5262 42.44L151.863 111.777L154.692 108.949Z" fill="black" mask="url(#path-2-outside-1)"/>
<path d="M84.866 96.5L84 95L83.134 96.5L54.5551 146L53.6891 147.5H55.4212H112.579H114.311L113.445 146L84.866 96.5Z" fill="#1D8848" stroke="black" stroke-width="2"/>
<path d="M85.3694 80.5059L84.5 78.9761L83.6306 80.5059L56.3508 128.506L55.5017 130H57.2202H111.78H113.498L112.649 128.506L85.3694 80.5059Z" fill="#1D8848" stroke="black" stroke-width="2"/>
<path d="M85.366 67.5L84.5 66L83.634 67.5L58.0862 111.75L57.2202 113.25H58.9523H110.048H111.78L110.914 111.75L85.366 67.5Z" fill="#1D8848" stroke="black" stroke-width="2"/>
</svg>
