<svg width="264" height="154" viewBox="0 0 264 154" fill="none" xmlns="http://www.w3.org/2000/svg">
<path d="M105.337 66.3364L119.651 49.5046L84.3155 79.028L80.9315 38.3571L69.0644 38.3575L74.1477 84.1124L24.0317 130.445L37.1253 144.139L134.743 69.6758L114.312 72.4339L131.245 58.3409L105.337 66.3364Z" fill="#BB8A52" stroke="#FFB902" stroke-width="2" stroke-linecap="round" stroke-linejoin="round"/>
<path d="M146.169 67.8834L163.372 83.1349L243.611 131.689L262.248 119.826L172.102 61.7741L152.947 56.021L163.373 70.5024L146.169 67.8834Z" fill="#BB8A52" stroke="#FFB902" stroke-width="2" stroke-linecap="round" stroke-linejoin="round"/>
<path d="M45.2673 15.126C44.6397 15.126 44.1309 15.6348 44.1309 16.2624C44.1309 23.217 46.9006 31.2076 51.0979 36.4785C53.1992 39.1172 55.7248 41.1571 58.5297 41.9754C61.3859 42.8087 64.4147 42.3388 67.3616 40.1738C67.7061 39.9207 68.0333 39.6417 68.3399 39.3351C68.6466 39.0284 68.9256 38.7012 69.1787 38.3567C71.3437 35.4098 71.8135 32.381 70.9803 29.5248C70.162 26.7199 68.1221 24.1943 65.4834 22.0931C60.2125 17.8957 52.2219 15.126 45.2673 15.126Z" fill="#B0B233" stroke="#6D9773" stroke-width="2" stroke-linejoin="round"/>
<path d="M71.5253 39.1727L71.6449 38.2574L71.5253 39.1727C71.8523 39.2155 72.1785 39.2319 72.5026 39.2249C75.2408 39.1651 77.2772 38.0564 78.6083 36.2365C79.9078 34.4598 80.4669 32.1015 80.5092 29.6157C80.5938 24.6522 78.6275 18.7567 75.5076 14.6987C75.1375 14.2174 74.4474 14.1272 73.9661 14.4972C69.9081 17.6172 66.4928 22.8095 65.2991 27.628C64.7012 30.0412 64.6355 32.464 65.4348 34.515C66.2535 36.6158 67.9366 38.2106 70.5675 38.972C70.8789 39.0621 71.1983 39.13 71.5253 39.1727Z" fill="#B0B233" stroke="#6D9773" stroke-width="2" stroke-linejoin="round"/>
<path d="M160.028 38.318L172.145 25.502" stroke="#FFB902" stroke-width="3" stroke-linecap="round" stroke-linejoin="round"/>
<path d="M150.254 19.5729L156.287 3" stroke="#FFB902" stroke-width="3" stroke-linecap="round" stroke-linejoin="round"/>
<path d="M133.827 30.3524L123.111 8.62598" stroke="#FFB902" stroke-width="3" stroke-linecap="round" stroke-linejoin="round"/>
</svg>
