<svg width="268" height="156" viewBox="0 0 268 156" fill="none" xmlns="http://www.w3.org/2000/svg">
<path d="M256.5 51.5H256H239.485H238.985V51V48.6572V48.4678L239.11 48.3259L247.832 38.4652C247.832 38.4646 247.833 38.464 247.834 38.4633C249.118 36.9812 249.975 35.8073 250.433 34.9324L250.434 34.9304C250.894 34.0581 251.12 33.169 251.12 32.2575C251.12 31.0254 250.757 30.0551 250.059 29.3037C249.371 28.5624 248.449 28.1775 247.24 28.1775C245.749 28.1775 244.652 28.6083 243.879 29.4149L256.5 51.5ZM256.5 51.5V51M256.5 51.5V51M256.5 51V48.3401V47.8401H256H244.473M256.5 51L244.473 47.8401M244.473 47.8401L250.467 41.2247C250.467 41.2247 250.467 41.2247 250.467 41.2246C253.649 37.7153 255.34 34.5891 255.34 31.8699C255.34 29.6711 254.614 27.8686 253.136 26.5166C251.659 25.1545 249.674 24.5 247.24 24.5C244.633 24.5 242.497 25.2613 240.885 26.8255L240.885 26.8255L240.884 26.8268C239.285 28.39 238.5 30.4339 238.5 32.9092V33.4092H239H242.203H242.703V32.9092C242.703 31.3544 243.115 30.2128 243.879 29.415L244.473 47.8401Z" fill="#23351A" stroke="#F2F2F2"/>
<path d="M201.805 26.4598L201.871 25.9011H201.309H196.607H196.18L196.113 26.3233C195.666 29.1596 194.771 31.0476 193.509 32.1062C192.251 33.1585 190.393 33.7219 187.861 33.7219C185.123 33.7219 183.029 32.6697 181.52 30.5619C179.992 28.4274 179.202 25.5169 179.202 21.7807V18.3877C179.202 14.4232 180.034 11.4438 181.63 9.38182C183.232 7.33251 185.428 6.30214 188.276 6.30214C190.627 6.30214 192.383 6.90491 193.611 8.0456L193.614 8.04761C194.859 9.18952 195.715 11.0808 196.112 13.8153L196.174 14.2433H196.607H201.309H201.862L201.806 13.6927C201.423 9.92265 200.057 6.9276 197.675 4.75917C195.29 2.57169 192.139 1.5 188.276 1.5C185.353 1.5 182.759 2.18562 180.511 3.57099C178.262 4.941 176.527 6.91039 175.303 9.46015L175.303 9.46015L175.302 9.46257C174.096 12.0116 173.5 14.9507 173.5 18.2674V21.6364C173.5 26.6944 174.781 30.7905 177.395 33.8715L177.396 33.8728C180.032 36.9609 183.537 38.5 187.861 38.5C191.815 38.5 195.035 37.4729 197.47 35.3704L197.47 35.3703C199.922 33.251 201.355 30.2626 201.805 26.4598ZM213.076 36.4014L213.078 36.4028C215.325 37.8047 217.896 38.5 220.773 38.5C223.713 38.5 226.309 37.8059 228.542 36.4019C230.777 34.997 232.495 32.9687 233.701 30.3394L233.701 30.3383C234.906 27.6938 235.5 24.6205 235.5 21.131V18.9171C235.5 15.4435 234.906 12.3784 233.701 9.73436C232.496 7.07216 230.761 5.02672 228.493 3.62145C226.244 2.20263 223.649 1.5 220.724 1.5C217.845 1.5 215.265 2.21253 213.002 3.64723C210.752 5.06829 209.018 7.12035 207.797 9.78072C206.577 12.4401 205.973 15.4893 205.973 18.9171L205.973 21.4438L205.973 21.4488C206.006 24.8122 206.627 27.7972 207.848 30.3921L207.85 30.3956C209.088 32.9753 210.83 34.9833 213.076 36.4014ZM227.415 9.6174L227.416 9.61878C229.013 11.712 229.847 14.772 229.847 18.869V21.4648C229.799 25.4635 228.958 28.4617 227.392 30.5254C225.841 32.5527 223.657 33.5775 220.773 33.5775C217.918 33.5775 215.707 32.4983 214.085 30.3381C212.465 28.1425 211.626 25.0919 211.626 21.131V18.5592C211.675 14.6785 212.529 11.718 214.13 9.61924C215.735 7.52042 217.915 6.47059 220.724 6.47059C223.62 6.47059 225.829 7.52411 227.415 9.6174Z" fill="#23351A" stroke="#F2F2F2"/>
<path d="M213.205 124.67C212.88 127.626 210.574 130.425 206.213 132.895C201.879 135.351 195.711 137.363 188.113 138.811C172.93 141.706 152.268 142.307 129.738 139.902C107.209 137.497 87.1563 132.549 72.9542 126.518C65.8471 123.5 60.2595 120.234 56.559 116.92C52.8367 113.587 51.1917 110.366 51.5166 107.41C51.8414 104.454 54.148 101.655 58.5082 99.1843C62.8427 96.7282 69.0104 94.7165 76.6083 93.2682C91.7913 90.3741 112.454 89.7724 134.983 92.1773C157.513 94.5823 177.565 99.5303 191.767 105.561C198.875 108.579 204.462 111.846 208.163 115.159C211.885 118.493 213.53 121.714 213.205 124.67Z" fill="#CFCFCF" stroke="black" stroke-width="2"/>
<path d="M262.845 108.927C262.431 112.688 258.845 116.232 251.94 119.277C245.113 122.287 235.387 124.65 223.427 126.242C199.522 129.425 166.92 129.501 131.3 125.699C95.6802 121.897 63.8514 114.942 41.1924 106.789C29.8554 102.71 20.868 98.3494 14.8536 93.9686C8.76973 89.5371 6.03669 85.3185 6.45004 81.5572C6.86339 77.796 10.4496 74.2519 17.3551 71.2071C24.1817 68.197 33.9079 65.8343 45.8683 64.242C69.773 61.0594 102.375 60.9826 137.995 64.7849C173.615 68.5872 205.443 75.5419 228.102 83.695C239.439 87.7743 248.427 92.1346 254.441 96.5154C260.525 100.947 263.258 105.165 262.845 108.927Z" fill="#F2F2F2" stroke="black" stroke-width="2"/>
<path d="M215.492 103.872C215.229 106.265 213.068 108.608 208.715 110.682C204.421 112.728 198.287 114.365 190.716 115.496C175.588 117.755 154.955 117.959 132.415 115.553C109.876 113.147 89.7656 108.593 75.4796 103.195C68.3294 100.493 62.6928 97.5992 58.9432 94.6946C55.1418 91.7498 53.5403 89.0051 53.8033 86.6119C54.0663 84.2188 56.2269 81.8756 60.5799 79.8013C64.8736 77.7553 71.008 76.1184 78.5794 74.9879C93.707 72.7291 114.34 72.5242 136.88 74.9303C159.42 77.3363 179.529 81.8904 193.815 87.289C200.966 89.9911 206.602 92.8844 210.352 95.7891C214.153 98.7338 215.755 101.479 215.492 103.872Z" fill="#CFCFCF" stroke="black" stroke-width="2"/>
<path d="M100.279 97.1009H37.5455L63.3209 68.3252C65.5939 65.5977 68.0032 62.6428 70.5489 59.4607C73.1856 56.2785 75.5949 52.9146 77.7769 49.3687C79.959 45.8229 81.7774 42.1407 83.2321 38.3221C84.6868 34.5036 85.4141 30.5941 85.4141 26.5937C85.4141 20.3203 83.7321 15.3198 80.3681 11.5921C77.0951 7.86444 72.8673 6.00061 67.685 6.00061C64.5938 6.00061 62.0026 6.59158 59.9115 7.77353C57.9113 8.95547 56.2293 10.5465 54.8655 12.5468C53.5926 14.456 52.638 16.729 52.0016 19.3656C51.3651 21.9113 50.9105 24.5934 50.6378 27.4119H37C37 23.5933 37.7728 20.0021 39.3184 16.6381C40.864 13.2741 43.0006 10.3647 45.7282 7.9099C48.5467 5.4551 51.8197 3.54581 55.5474 2.18204C59.275 0.727344 63.3209 0 67.685 0C72.5946 0 77.0041 0.727344 80.9136 2.18204C84.8231 3.54581 88.0962 5.4551 90.7328 7.9099C93.3695 10.3647 95.3697 13.2286 96.7335 16.5017C98.1881 19.6838 98.9155 23.0478 98.9155 26.5937C98.9155 31.0487 98.4609 34.8672 97.5517 38.0494C96.7335 41.2315 95.3697 44.3228 93.4604 47.3231C91.642 50.2325 89.2327 53.3237 86.2324 56.5968C83.323 59.8698 79.7772 63.7793 75.5949 68.3252L57.8658 87.2817H100.279V97.1009Z" fill="#0C3A2D"/>
<path d="M117.046 115.648H112.546V80.4629H125.365L117.046 115.648Z" fill="#0C3A2D"/>
<path d="M158.857 97.1009H147.265V14.456L136.764 25.3663L133.082 21.5477L152.311 1.63652H158.857V97.1009Z" fill="#0C3A2D"/>
<path fill-rule="evenodd" clip-rule="evenodd" d="M63.3209 68.3252L37.5455 97.1009H100.279V87.2817H57.8658L75.5949 68.3252C79.7772 63.7793 83.323 59.8698 86.2324 56.5968C89.2327 53.3237 91.642 50.2325 93.4604 47.3231C95.3697 44.3228 96.7335 41.2315 97.5517 38.0494C98.4609 34.8672 98.9155 31.0487 98.9155 26.5937C98.9155 23.0478 98.1881 19.6838 96.7335 16.5017C95.3697 13.2286 93.3695 10.3647 90.7328 7.9099C88.0962 5.4551 84.8231 3.54581 80.9136 2.18204C77.0041 0.727345 72.5946 0 67.685 0C63.3209 0 59.275 0.727345 55.5474 2.18204C51.8197 3.54581 48.5467 5.4551 45.7282 7.9099C43.0006 10.3647 40.864 13.2741 39.3184 16.6381C37.9471 19.6227 37.1841 22.7862 37.0295 26.1286C37.0098 26.5535 37 26.9813 37 27.4119H50.6378C50.9105 24.5934 51.3651 21.9113 52.0016 19.3656C52.638 16.729 53.5926 14.456 54.8655 12.5468C56.2293 10.5465 57.9113 8.95547 59.9115 7.77353C62.0026 6.59158 64.5938 6.00061 67.685 6.00061C72.8673 6.00061 77.0951 7.86444 80.3681 11.5921C83.7321 15.3198 85.4141 20.3203 85.4141 26.5937C85.4141 30.5941 84.6868 34.5036 83.2321 38.3221C81.7774 42.1407 79.959 45.8229 77.7769 49.3687C75.5949 52.9146 73.1856 56.2785 70.5489 59.4607C68.0032 62.6428 65.5939 65.5977 63.3209 68.3252ZM71.544 60.2711C68.9963 63.4556 66.5838 66.4143 64.3067 69.1468L64.2921 69.1644L40.4178 95.8177H98.996V88.565H54.9085L74.6505 67.4564L74.654 67.4526C78.8316 62.9117 82.371 59.0092 85.2732 55.7442L85.2798 55.7368L85.2864 55.7296C88.2482 52.4985 90.6054 49.4697 92.3722 46.6429L92.3777 46.6341C94.2205 43.7384 95.5269 40.7708 96.3089 37.7298L96.3131 37.7133L96.3178 37.6968C97.1852 34.6611 97.6322 30.9678 97.6322 26.5937C97.6322 23.2294 96.9434 20.0476 95.5663 17.0352L95.5573 17.0154L95.5489 16.9953C94.2567 13.8939 92.3633 11.1813 89.8584 8.84913C87.3699 6.53223 84.2575 4.70764 80.491 3.39371L80.4785 3.38936L80.4661 3.38476C76.7227 1.99186 72.4683 1.28328 67.685 1.28328C63.466 1.28328 59.5799 1.9859 56.0139 3.37751L56.0011 3.38249L55.9883 3.3872C52.4022 4.69918 49.2699 6.52864 46.5787 8.87093C43.9861 11.2062 41.9563 13.9706 40.4845 17.1739C39.1922 19.9866 38.4677 22.9682 38.3142 26.1286H49.4836C49.7678 23.6733 50.1913 21.3166 50.7554 19.0592C51.4209 16.3044 52.4286 13.8887 53.7977 11.8349L53.8051 11.8238C55.2705 9.67463 57.0894 7.95055 59.2586 6.66872L59.2693 6.66243L59.28 6.65635C61.6114 5.33861 64.4345 4.71733 67.685 4.71733C73.2149 4.71733 77.7988 6.72433 81.3269 10.7391C84.949 14.7565 86.6974 20.0887 86.6974 26.5937C86.6974 30.7536 85.9403 34.8177 84.4313 38.779C82.9474 42.674 81.0932 46.4284 78.8699 50.0413C76.6585 53.6348 74.2165 57.0448 71.544 60.2711ZM116.031 114.365L123.743 81.7461H113.829V114.365H116.031ZM112.546 80.4629V115.648H117.046L125.365 80.4629H112.546ZM147.265 97.1009H158.857V1.63652H152.311L133.082 21.5476L136.764 25.3663L147.265 14.456V97.1009ZM136.763 23.5166L148.548 11.2722V95.8177H157.574V2.91981H152.856L134.865 21.5484L136.763 23.5166Z" fill="#FFB902"/>
</svg>
