<svg width="288" height="186" viewBox="0 0 288 186" fill="none" xmlns="http://www.w3.org/2000/svg">
<path fill-rule="evenodd" clip-rule="evenodd" d="M88.1763 4.1875H0V14.4841H68.5192L47.3644 66.5287H26.5839V74.5788H44.1818L19.6571 135.235H35.1956L59.7203 74.5788H78.8158V66.5287H62.9029L88.1763 4.1875ZM77.0542 68.2903H60.2878L85.5613 5.94911H1.7616V12.7225H71.1368L48.5499 68.2903H28.3456V72.8172H46.7942L22.2696 133.474H34.0078L58.5324 72.8172H77.0542V68.2903Z" fill="#6D9773"/>
<path d="M125.21 27.1111L52.6211 77.1699L58.4666 85.6464L114.873 46.7471L127.005 101.602L109.898 113.399L114.468 120.026L128.955 110.035L143.201 173.892L155.992 165.071L141.746 101.214L157.466 90.3732L152.896 83.7461L139.796 92.7801L125.21 27.1111Z" fill="#0C3A2D"/>
<path fill-rule="evenodd" clip-rule="evenodd" d="M125.21 27.1111L52.6211 77.1699L58.4666 85.6464L114.873 46.7471L127.005 101.602L109.898 113.399L114.468 120.026L128.955 110.035L143.201 173.892L155.992 165.071L141.746 101.214L157.466 90.3732L152.896 83.7461L139.796 92.7801L125.21 27.1111ZM152.446 86.1964L138.644 95.7149L124.058 30.0459L55.0714 77.62L58.9167 83.1961L116.028 43.8109L128.981 102.379L112.348 113.849L114.918 117.576L130.105 107.102L144.351 170.959L154.015 164.295L139.768 100.438L155.016 89.9231L152.446 86.1964Z" fill="#FFB902"/>
<path d="M160.744 41.1336C160.431 38.0293 160.595 34.6884 161.237 31.1112C161.879 27.5339 163.174 24.2044 165.12 21.1225C167.067 18.0407 169.623 15.3991 172.787 13.1978C176.064 10.8598 180.123 9.44616 184.966 8.95693C189.809 8.46771 194.069 9.04089 197.747 10.6764C201.412 12.1878 204.506 14.2587 207.03 16.8889C209.553 19.5191 211.487 22.5225 212.832 25.8991C214.177 29.2756 215.006 32.5161 215.319 35.6205C215.721 39.5941 215.427 43.5125 214.437 47.3758C213.559 51.1023 212.016 54.4569 209.809 57.4397C207.726 60.4099 205.089 62.8714 201.899 64.8244C198.71 66.7774 195.066 67.9608 190.968 68.3748C186.87 68.7888 183.064 68.3579 179.548 67.0824C176.032 65.8068 172.956 63.9222 170.321 61.4287C167.686 58.9352 165.503 55.9569 163.774 52.4938C162.156 48.894 161.146 45.1072 160.744 41.1336ZM172.852 39.9106C173.303 44.3809 174.182 48.1181 175.489 51.1221C176.784 54.0019 178.27 56.2979 179.949 58.01C181.627 59.7221 183.379 60.925 185.205 61.6186C187.143 62.1755 188.857 62.3786 190.347 62.2281C191.962 62.065 193.6 61.5232 195.264 60.6025C196.914 59.5577 198.39 58.0287 199.692 56.0155C200.994 54.0023 201.991 51.4555 202.684 48.3749C203.364 45.1702 203.478 41.3327 203.026 36.8624C202.763 34.2547 202.245 31.61 201.472 28.9283C200.699 26.2466 199.641 23.8447 198.298 21.7224C196.955 19.6001 195.22 17.9564 193.096 16.7912C191.083 15.4893 188.586 14.9888 185.606 15.2899C182.75 15.5784 180.403 16.5681 178.567 18.2589C176.843 19.813 175.472 21.7703 174.456 24.1309C173.564 26.4789 173.008 29.044 172.787 31.826C172.567 34.608 172.588 37.3029 172.852 39.9106ZM229.516 110.957C229.19 107.729 229.348 104.326 229.99 100.748C230.619 97.047 231.907 93.6554 233.854 90.5736C235.788 87.3676 238.4 84.6576 241.688 82.4438C244.977 80.2299 249.043 78.8784 253.886 78.3891C258.729 77.8999 262.983 78.411 266.648 79.9224C270.313 81.4338 273.413 83.5667 275.95 86.3211C278.473 88.9513 280.414 92.0168 281.771 95.5176C283.115 98.8941 283.951 102.197 284.277 105.425C284.666 109.275 284.359 113.069 283.357 116.808C282.467 120.41 280.918 123.703 278.71 126.686C276.614 129.532 273.971 131.931 270.782 133.884C267.592 135.837 263.948 137.021 259.85 137.434C255.753 137.848 251.946 137.418 248.43 136.142C244.914 134.866 241.783 133.05 239.036 130.693C236.401 128.2 234.224 125.284 232.507 121.945C230.902 118.469 229.905 114.807 229.516 110.957ZM241.809 109.715C242.261 114.186 243.134 117.861 244.428 120.741C245.723 123.62 247.209 125.916 248.887 127.628C250.69 129.328 252.498 130.463 254.311 131.032C256.125 131.601 257.777 131.811 259.267 131.66C260.757 131.51 262.334 130.974 263.997 130.054C265.784 129.12 267.329 127.647 268.631 125.634C269.933 123.621 270.93 121.074 271.623 117.993C272.315 114.913 272.435 111.137 271.984 106.667C271.708 103.935 271.177 101.166 270.392 98.3605C269.731 95.5421 268.667 93.0781 267.199 90.9684C265.856 88.8461 264.122 87.2024 261.997 86.0371C259.984 84.7352 257.487 84.2348 254.507 84.5358C251.651 84.8243 249.305 85.814 247.468 87.5048C245.744 89.0589 244.373 91.0162 243.357 93.3768C242.466 95.7249 241.916 98.352 241.707 101.258C241.499 104.164 241.533 106.983 241.809 109.715ZM257.422 1.63743L198.961 143.774L187.972 144.884L246.06 2.78522L257.422 1.63743Z" fill="#0C3A2D"/>
<mask id="path-5-inside-1" fill="white">
<path fill-rule="evenodd" clip-rule="evenodd" d="M173.802 14.6379L173.793 14.644C170.811 16.7187 168.424 19.1919 166.61 22.0633C164.784 24.9536 163.573 28.0695 162.971 31.4224C162.353 34.8644 162.202 38.0393 162.497 40.9566C162.879 44.732 163.835 48.3235 165.366 51.7387C167.007 55.0162 169.064 57.814 171.532 60.1491C173.986 62.4715 176.853 64.2305 180.149 65.4264C183.391 66.6029 186.93 67.0122 190.791 66.6221C194.653 66.232 198.038 65.1234 200.98 63.322C203.97 61.4912 206.426 59.1944 208.367 56.4281L208.38 56.4097L208.393 56.3917C210.454 53.6073 211.898 50.4732 212.723 46.9718L212.726 46.9552L212.731 46.9386C213.669 43.2761 213.947 39.5656 213.567 35.7975C213.272 32.8802 212.489 29.7997 211.196 26.5508C209.935 23.386 208.125 20.5753 205.759 18.1085C203.419 15.6697 200.534 13.7314 197.075 12.305L197.053 12.2958L197.031 12.2861C193.686 10.7987 189.744 10.2448 185.143 10.7096C180.541 11.1745 176.79 12.5056 173.811 14.6317L173.802 14.6379ZM163.774 52.4938C162.156 48.894 161.146 45.1072 160.744 41.1336C160.431 38.0293 160.595 34.6884 161.237 31.1112C161.879 27.5339 163.174 24.2044 165.12 21.1225C167.067 18.0407 169.623 15.3991 172.787 13.1978C176.064 10.8598 180.123 9.44616 184.966 8.95693C189.809 8.46771 194.069 9.04088 197.747 10.6764C201.412 12.1878 204.506 14.2587 207.03 16.8889C209.553 19.5191 211.487 22.5225 212.832 25.8991C214.177 29.2756 215.006 32.5161 215.319 35.6205C215.721 39.5941 215.427 43.5125 214.437 47.3758C213.559 51.1023 212.016 54.4569 209.809 57.4397C207.726 60.4099 205.089 62.8714 201.899 64.8244C198.71 66.7774 195.066 67.9608 190.968 68.3748C186.87 68.7888 183.064 68.3579 179.548 67.0824C176.032 65.8068 172.956 63.9222 170.321 61.4287C167.686 58.9352 165.503 55.9569 163.774 52.4938ZM173.878 51.8346L173.874 51.8249C172.473 48.6047 171.562 44.6769 171.099 40.0876C170.824 37.3683 170.803 34.5673 171.031 31.6867C171.264 28.7565 171.852 26.0258 172.809 23.5054L172.823 23.4696L172.838 23.4345C173.942 20.8688 175.452 18.6971 177.381 16.9566C179.537 14.9739 182.256 13.8577 185.429 13.5372C188.681 13.2087 191.583 13.7352 193.998 15.277C196.368 16.589 198.301 18.4338 199.786 20.7802C201.228 23.0582 202.351 25.6161 203.165 28.4406C203.965 31.2173 204.504 33.9659 204.779 36.6853C205.242 41.2746 205.136 45.3051 204.407 48.7405L204.405 48.7508L204.403 48.7612C203.678 51.9839 202.616 54.739 201.172 56.9721C199.762 59.1518 198.115 60.8825 196.206 62.091L196.162 62.1187L196.117 62.1437C194.28 63.1604 192.413 63.79 190.524 63.9808C188.749 64.1602 186.802 63.9103 184.719 63.3117L184.648 63.2914L184.58 63.2654C182.467 62.4631 180.508 61.0969 178.691 59.2432C176.829 57.344 175.237 54.857 173.883 51.8443L173.878 51.8346ZM174.456 24.1309C175.472 21.7703 176.843 19.8129 178.567 18.2589C180.403 16.568 182.75 15.5784 185.606 15.2899C188.586 14.9888 191.083 15.4893 193.096 16.7912C195.22 17.9564 196.955 19.6002 198.298 21.7224C199.641 23.8447 200.699 26.2466 201.472 28.9283C202.245 31.61 202.763 34.2547 203.026 36.8624C203.478 41.3327 203.364 45.1702 202.684 48.3749C201.991 51.4555 200.994 54.0023 199.692 56.0155C198.39 58.0287 196.914 59.5577 195.264 60.6025C193.6 61.5232 191.962 62.065 190.347 62.2281C188.857 62.3786 187.143 62.1755 185.205 61.6186C183.379 60.925 181.627 59.7221 179.949 58.01C178.27 56.2979 176.784 54.0019 175.489 51.1221C174.182 48.1181 173.303 44.3809 172.852 39.9106C172.588 37.3029 172.567 34.608 172.787 31.826C173.008 29.044 173.564 26.4789 174.456 24.1309ZM231.725 101.052L231.724 101.06C231.107 104.495 230.961 107.733 231.268 110.78C231.637 114.425 232.577 117.886 234.091 121.172C235.711 124.313 237.753 127.047 240.216 129.384C242.788 131.585 245.722 133.286 249.031 134.486C252.274 135.663 255.812 136.072 259.673 135.682C263.535 135.292 266.92 134.183 269.862 132.382C272.869 130.541 275.338 128.293 277.292 125.641L277.294 125.638C279.363 122.842 280.812 119.762 281.647 116.385L281.651 116.369L281.656 116.352C282.602 112.819 282.892 109.239 282.524 105.602C282.216 102.555 281.425 99.4118 280.134 96.1693L280.131 96.1618L280.128 96.1543C278.853 92.8638 277.036 89.998 274.678 87.5407L274.666 87.5277L274.654 87.5144C272.301 84.9598 269.418 82.9704 265.976 81.551C262.634 80.1727 258.682 79.6752 254.063 80.1418C249.444 80.6084 245.671 81.8863 242.672 83.9051C239.584 85.9842 237.156 88.5102 235.362 91.4835L235.353 91.499L235.343 91.5143C233.525 94.3935 232.318 97.5647 231.726 101.044L231.725 101.052ZM239.036 130.693C236.401 128.2 234.224 125.284 232.507 121.945C230.902 118.469 229.905 114.807 229.516 110.957C229.19 107.729 229.348 104.326 229.99 100.748C230.619 97.047 231.907 93.6554 233.854 90.5736C235.788 87.3676 238.4 84.6576 241.688 82.4438C244.977 80.2299 249.043 78.8784 253.886 78.3891C258.729 77.8999 262.983 78.411 266.648 79.9224C270.313 81.4338 273.413 83.5667 275.95 86.3211C278.473 88.9513 280.414 92.0168 281.771 95.5176C283.115 98.8941 283.951 102.197 284.277 105.425C284.666 109.275 284.359 113.069 283.357 116.808C282.467 120.41 280.918 123.703 278.71 126.686C276.614 129.532 273.971 131.931 270.782 133.884C267.592 135.837 263.948 137.021 259.85 137.434C255.753 137.848 251.946 137.418 248.43 136.142C244.914 134.866 241.783 133.05 239.036 130.693ZM247.653 128.886L247.629 128.862C245.768 126.962 244.176 124.475 242.821 121.463C241.424 118.354 240.52 114.478 240.056 109.892C239.77 107.054 239.735 104.133 239.95 101.132C240.169 98.0818 240.749 95.2829 241.71 92.7514L241.724 92.7156L241.739 92.6804C242.843 90.1148 244.353 87.943 246.282 86.2025C248.438 84.2199 251.157 83.1036 254.33 82.7831C257.582 82.4546 260.484 82.9811 262.899 84.5229C265.259 85.8289 267.184 87.6628 268.667 89.9939C270.258 92.291 271.395 94.9424 272.098 97.9214C272.904 100.807 273.451 103.663 273.736 106.49C274.2 111.076 274.089 115.054 273.341 118.38C272.617 121.602 271.555 124.357 270.11 126.591C268.679 128.804 266.927 130.506 264.832 131.605C263.02 132.605 261.22 133.234 259.444 133.413C257.662 133.593 255.766 133.335 253.784 132.713C251.651 132.043 249.618 130.739 247.679 128.91L247.653 128.886ZM263.997 130.054C265.784 129.12 267.329 127.647 268.631 125.634C269.933 123.621 270.93 121.074 271.623 117.993C272.315 114.913 272.435 111.137 271.984 106.667C271.708 103.935 271.177 101.166 270.392 98.3605C269.731 95.5421 268.667 93.0781 267.199 90.9684C265.856 88.8461 264.122 87.2024 261.997 86.0371C259.984 84.7352 257.487 84.2348 254.507 84.5358C251.651 84.8243 249.305 85.814 247.468 87.5048C245.744 89.0589 244.373 91.0162 243.357 93.3768C242.466 95.7249 241.916 98.352 241.707 101.258C241.499 104.164 241.533 106.983 241.809 109.715C242.261 114.186 243.134 117.861 244.428 120.741C245.723 123.62 247.209 125.916 248.887 127.628C250.69 129.328 252.498 130.463 254.311 131.032C256.125 131.601 257.777 131.811 259.267 131.66C260.757 131.51 262.334 130.974 263.997 130.054ZM257.422 1.63743L246.06 2.78522L187.972 144.884L198.961 143.774L257.422 1.63743ZM254.675 3.68552L197.734 142.127L190.712 142.836L247.29 4.43152L254.675 3.68552Z"/>
</mask>
<path fill-rule="evenodd" clip-rule="evenodd" d="M173.802 14.6379L173.793 14.644C170.811 16.7187 168.424 19.1919 166.61 22.0633C164.784 24.9536 163.573 28.0695 162.971 31.4224C162.353 34.8644 162.202 38.0393 162.497 40.9566C162.879 44.732 163.835 48.3235 165.366 51.7387C167.007 55.0162 169.064 57.814 171.532 60.1491C173.986 62.4715 176.853 64.2305 180.149 65.4264C183.391 66.6029 186.93 67.0122 190.791 66.6221C194.653 66.232 198.038 65.1234 200.98 63.322C203.97 61.4912 206.426 59.1944 208.367 56.4281L208.38 56.4097L208.393 56.3917C210.454 53.6073 211.898 50.4732 212.723 46.9718L212.726 46.9552L212.731 46.9386C213.669 43.2761 213.947 39.5656 213.567 35.7975C213.272 32.8802 212.489 29.7997 211.196 26.5508C209.935 23.386 208.125 20.5753 205.759 18.1085C203.419 15.6697 200.534 13.7314 197.075 12.305L197.053 12.2958L197.031 12.2861C193.686 10.7987 189.744 10.2448 185.143 10.7096C180.541 11.1745 176.79 12.5056 173.811 14.6317L173.802 14.6379ZM163.774 52.4938C162.156 48.894 161.146 45.1072 160.744 41.1336C160.431 38.0293 160.595 34.6884 161.237 31.1112C161.879 27.5339 163.174 24.2044 165.12 21.1225C167.067 18.0407 169.623 15.3991 172.787 13.1978C176.064 10.8598 180.123 9.44616 184.966 8.95693C189.809 8.46771 194.069 9.04088 197.747 10.6764C201.412 12.1878 204.506 14.2587 207.03 16.8889C209.553 19.5191 211.487 22.5225 212.832 25.8991C214.177 29.2756 215.006 32.5161 215.319 35.6205C215.721 39.5941 215.427 43.5125 214.437 47.3758C213.559 51.1023 212.016 54.4569 209.809 57.4397C207.726 60.4099 205.089 62.8714 201.899 64.8244C198.71 66.7774 195.066 67.9608 190.968 68.3748C186.87 68.7888 183.064 68.3579 179.548 67.0824C176.032 65.8068 172.956 63.9222 170.321 61.4287C167.686 58.9352 165.503 55.9569 163.774 52.4938ZM173.878 51.8346L173.874 51.8249C172.473 48.6047 171.562 44.6769 171.099 40.0876C170.824 37.3683 170.803 34.5673 171.031 31.6867C171.264 28.7565 171.852 26.0258 172.809 23.5054L172.823 23.4696L172.838 23.4345C173.942 20.8688 175.452 18.6971 177.381 16.9566C179.537 14.9739 182.256 13.8577 185.429 13.5372C188.681 13.2087 191.583 13.7352 193.998 15.277C196.368 16.589 198.301 18.4338 199.786 20.7802C201.228 23.0582 202.351 25.6161 203.165 28.4406C203.965 31.2173 204.504 33.9659 204.779 36.6853C205.242 41.2746 205.136 45.3051 204.407 48.7405L204.405 48.7508L204.403 48.7612C203.678 51.9839 202.616 54.739 201.172 56.9721C199.762 59.1518 198.115 60.8825 196.206 62.091L196.162 62.1187L196.117 62.1437C194.28 63.1604 192.413 63.79 190.524 63.9808C188.749 64.1602 186.802 63.9103 184.719 63.3117L184.648 63.2914L184.58 63.2654C182.467 62.4631 180.508 61.0969 178.691 59.2432C176.829 57.344 175.237 54.857 173.883 51.8443L173.878 51.8346ZM174.456 24.1309C175.472 21.7703 176.843 19.8129 178.567 18.2589C180.403 16.568 182.75 15.5784 185.606 15.2899C188.586 14.9888 191.083 15.4893 193.096 16.7912C195.22 17.9564 196.955 19.6002 198.298 21.7224C199.641 23.8447 200.699 26.2466 201.472 28.9283C202.245 31.61 202.763 34.2547 203.026 36.8624C203.478 41.3327 203.364 45.1702 202.684 48.3749C201.991 51.4555 200.994 54.0023 199.692 56.0155C198.39 58.0287 196.914 59.5577 195.264 60.6025C193.6 61.5232 191.962 62.065 190.347 62.2281C188.857 62.3786 187.143 62.1755 185.205 61.6186C183.379 60.925 181.627 59.7221 179.949 58.01C178.27 56.2979 176.784 54.0019 175.489 51.1221C174.182 48.1181 173.303 44.3809 172.852 39.9106C172.588 37.3029 172.567 34.608 172.787 31.826C173.008 29.044 173.564 26.4789 174.456 24.1309ZM231.725 101.052L231.724 101.06C231.107 104.495 230.961 107.733 231.268 110.78C231.637 114.425 232.577 117.886 234.091 121.172C235.711 124.313 237.753 127.047 240.216 129.384C242.788 131.585 245.722 133.286 249.031 134.486C252.274 135.663 255.812 136.072 259.673 135.682C263.535 135.292 266.92 134.183 269.862 132.382C272.869 130.541 275.338 128.293 277.292 125.641L277.294 125.638C279.363 122.842 280.812 119.762 281.647 116.385L281.651 116.369L281.656 116.352C282.602 112.819 282.892 109.239 282.524 105.602C282.216 102.555 281.425 99.4118 280.134 96.1693L280.131 96.1618L280.128 96.1543C278.853 92.8638 277.036 89.998 274.678 87.5407L274.666 87.5277L274.654 87.5144C272.301 84.9598 269.418 82.9704 265.976 81.551C262.634 80.1727 258.682 79.6752 254.063 80.1418C249.444 80.6084 245.671 81.8863 242.672 83.9051C239.584 85.9842 237.156 88.5102 235.362 91.4835L235.353 91.499L235.343 91.5143C233.525 94.3935 232.318 97.5647 231.726 101.044L231.725 101.052ZM239.036 130.693C236.401 128.2 234.224 125.284 232.507 121.945C230.902 118.469 229.905 114.807 229.516 110.957C229.19 107.729 229.348 104.326 229.99 100.748C230.619 97.047 231.907 93.6554 233.854 90.5736C235.788 87.3676 238.4 84.6576 241.688 82.4438C244.977 80.2299 249.043 78.8784 253.886 78.3891C258.729 77.8999 262.983 78.411 266.648 79.9224C270.313 81.4338 273.413 83.5667 275.95 86.3211C278.473 88.9513 280.414 92.0168 281.771 95.5176C283.115 98.8941 283.951 102.197 284.277 105.425C284.666 109.275 284.359 113.069 283.357 116.808C282.467 120.41 280.918 123.703 278.71 126.686C276.614 129.532 273.971 131.931 270.782 133.884C267.592 135.837 263.948 137.021 259.85 137.434C255.753 137.848 251.946 137.418 248.43 136.142C244.914 134.866 241.783 133.05 239.036 130.693ZM247.653 128.886L247.629 128.862C245.768 126.962 244.176 124.475 242.821 121.463C241.424 118.354 240.52 114.478 240.056 109.892C239.77 107.054 239.735 104.133 239.95 101.132C240.169 98.0818 240.749 95.2829 241.71 92.7514L241.724 92.7156L241.739 92.6804C242.843 90.1148 244.353 87.943 246.282 86.2025C248.438 84.2199 251.157 83.1036 254.33 82.7831C257.582 82.4546 260.484 82.9811 262.899 84.5229C265.259 85.8289 267.184 87.6628 268.667 89.9939C270.258 92.291 271.395 94.9424 272.098 97.9214C272.904 100.807 273.451 103.663 273.736 106.49C274.2 111.076 274.089 115.054 273.341 118.38C272.617 121.602 271.555 124.357 270.11 126.591C268.679 128.804 266.927 130.506 264.832 131.605C263.02 132.605 261.22 133.234 259.444 133.413C257.662 133.593 255.766 133.335 253.784 132.713C251.651 132.043 249.618 130.739 247.679 128.91L247.653 128.886ZM263.997 130.054C265.784 129.12 267.329 127.647 268.631 125.634C269.933 123.621 270.93 121.074 271.623 117.993C272.315 114.913 272.435 111.137 271.984 106.667C271.708 103.935 271.177 101.166 270.392 98.3605C269.731 95.5421 268.667 93.0781 267.199 90.9684C265.856 88.8461 264.122 87.2024 261.997 86.0371C259.984 84.7352 257.487 84.2348 254.507 84.5358C251.651 84.8243 249.305 85.814 247.468 87.5048C245.744 89.0589 244.373 91.0162 243.357 93.3768C242.466 95.7249 241.916 98.352 241.707 101.258C241.499 104.164 241.533 106.983 241.809 109.715C242.261 114.186 243.134 117.861 244.428 120.741C245.723 123.62 247.209 125.916 248.887 127.628C250.69 129.328 252.498 130.463 254.311 131.032C256.125 131.601 257.777 131.811 259.267 131.66C260.757 131.51 262.334 130.974 263.997 130.054ZM257.422 1.63743L246.06 2.78522L187.972 144.884L198.961 143.774L257.422 1.63743ZM254.675 3.68552L197.734 142.127L190.712 142.836L247.29 4.43152L254.675 3.68552Z" fill="#F2F2F2" stroke="#F2F2F2" stroke-width="2" mask="url(#path-5-inside-1)"/>
</svg>
