<svg width="194" height="198" viewBox="0 0 194 198" fill="none" xmlns="http://www.w3.org/2000/svg">
<path d="M97.8297 3.44174L97 2.20872L96.1703 3.44174L45.958 78.0655C29.5312 102.478 32.6914 135.106 53.498 155.912C77.5235 179.938 116.476 179.938 140.502 155.912C161.309 135.106 164.469 102.478 148.042 78.0655L97.8297 3.44174Z" fill="#96B3FF" stroke="black" stroke-width="2"/>
<path d="M147.582 62.8636C147.163 60.7054 144.075 60.7054 143.656 62.8636L140.05 81.4306L121.483 85.0367C119.325 85.4559 119.325 88.5441 121.483 88.9633L140.05 92.5694L143.656 111.136C144.075 113.295 147.163 113.295 147.582 111.136L151.189 92.5694L169.755 88.9633C171.914 88.5441 171.914 85.4559 169.755 85.0367L151.189 81.4306L147.582 62.8636Z" fill="white" stroke="black" stroke-width="2" stroke-linejoin="bevel"/>
</svg>
