<svg width="40" height="40" viewBox="0 0 40 40" fill="none" xmlns="http://www.w3.org/2000/svg">
<rect width="40" height="40" rx="20" fill="#F2F2F2"/>
<path fill-rule="evenodd" clip-rule="evenodd" d="M24.3395 30.8576H15.6555C11.992 30.8576 9.14258 27.9268 9.14258 24.33V15.6709C9.14258 12.0741 12.1277 9.27653 15.6555 9.14331H24.3395C28.003 9.14331 30.8524 12.0741 30.8524 15.6709V24.33C30.9881 27.9268 28.003 30.8576 24.3395 30.8576ZM26.1026 13.1398C25.2885 13.1398 24.7457 13.6726 24.7457 14.4719C24.7457 15.2712 25.2885 15.8041 26.1026 15.8041C26.9167 15.8041 27.4595 15.2712 27.4595 14.4719C27.4595 13.8059 26.9167 13.1398 26.1026 13.1398ZM15.6555 20.0676C15.6555 22.4655 17.6908 24.4638 20.1331 24.4638C22.5755 24.4638 24.6108 22.4655 24.6108 20.0676C24.6108 17.6697 22.5755 15.6715 20.1331 15.6715C17.6908 15.6715 15.6555 17.6697 15.6555 20.0676Z" fill="#0C3A2D"/>
</svg>
