<svg width="42" height="12" viewBox="0 0 42 12" fill="none" xmlns="http://www.w3.org/2000/svg">
<path d="M0.46967 5.46968C0.176777 5.76257 0.176777 6.23744 0.46967 6.53034L5.24264 11.3033C5.53553 11.5962 6.01041 11.5962 6.3033 11.3033C6.59619 11.0104 6.59619 10.5355 6.3033 10.2426L2.06066 6.00001L6.3033 1.75737C6.59619 1.46447 6.59619 0.989599 6.3033 0.696706C6.01041 0.403813 5.53553 0.403813 5.24264 0.696706L0.46967 5.46968ZM41 6.75001C41.4142 6.75001 41.75 6.41422 41.75 6.00001C41.75 5.58579 41.4142 5.25001 41 5.25001L41 6.75001ZM1 6.75001L41 6.75001L41 5.25001L1 5.25001L1 6.75001Z" fill="#0C3A2D"/>
</svg>
