<svg width="63" height="79" viewBox="0 0 63 79" fill="none" xmlns="http://www.w3.org/2000/svg">
<path fill-rule="evenodd" clip-rule="evenodd" d="M31.4216 0C29.0769 1.16615 10.9734 10.317 4.39583 19.1775C-2.64541 28.6621 -0.60156 51.3123 6.10132 56.9166C12.8044 62.5209 21.6282 60.9123 28.6695 51.4277C29.9403 49.7158 31.3702 47.3073 31.4819 46.3135C31.6043 47.3073 33.0235 49.7158 34.2944 51.4277C41.3356 60.9123 50.1594 62.5209 56.8625 56.9166C63.5654 51.3123 65.6093 28.6621 58.568 19.1775C51.9904 10.317 33.7663 1.16615 31.4216 0Z" fill="#6D9773"/>
<path d="M31.4814 13.1566L31.4814 78" stroke="#0C3A2D" stroke-width="2" stroke-linecap="round" stroke-linejoin="round"/>
<path d="M23.2588 14.3313L31.4817 23.9639L41.1142 12.2169" stroke="#0C3A2D" stroke-width="2" stroke-linecap="round" stroke-linejoin="round"/>
<path d="M14.5664 24.9036L31.2471 33.3614L51.4519 21.1446" stroke="#0C3A2D" stroke-width="2" stroke-linecap="round" stroke-linejoin="round"/>
<path d="M8.22266 34.5361L31.7166 41.3494L54.9757 33.3614" stroke="#0C3A2D" stroke-width="2" stroke-linecap="round" stroke-linejoin="round"/>
</svg>
