<svg width="63" height="74" viewBox="0 0 63 74" fill="none" xmlns="http://www.w3.org/2000/svg">
<circle cx="24.5" cy="24.5" r="24.5" fill="#0C3A2D"/>
<rect x="21" y="29" width="5" height="34" fill="#BA6400"/>
<path d="M46.3513 49.3634C46.3513 49.3634 51.1429 48.5458 53.1033 49.3634C54.5631 49.9713 60.2129 51.8259 63 52.7339V69.7791C61.3867 69.6944 58.1768 69.5386 56.8054 69.5886C48.9048 69.8791 44.8725 72.9246 36.9867 73.4709C32.5758 73.7768 28.7118 74.4905 25.6618 73.4709C22.6118 72.4494 5.19112 64.6867 3.01406 62.6436C0.834888 60.6005 1.92447 55.0829 8.67652 56.1045C15.4286 57.1261 24.3556 62.0299 28.0576 61.826C31.7597 61.622 41.5617 59.9868 41.5617 59.9868L30.3083 60.1118C30.3083 60.1118 28.7181 60.1888 26.5347 58.7613C24.3472 57.3338 22.3952 53.2457 25.6618 53.2457C28.9285 53.2457 32.4139 52.2222 32.4139 52.2222L46.3513 49.3634Z" fill="#FFD469"/>
</svg>
