<svg width="162" height="137" viewBox="0 0 162 137" fill="none" xmlns="http://www.w3.org/2000/svg">
<ellipse cx="67.7921" cy="75.26" rx="47.3159" ry="43.5805" transform="rotate(-15.5628 67.7921 75.26)" fill="#FFB902"/>
<path d="M40.1851 81.6559C30.9105 84.2389 20.2511 75.0551 16.3766 61.1433C12.5021 47.2314 16.8797 33.8597 26.1542 31.2767C35.4288 28.6937 46.0882 37.8775 49.9627 51.7894C53.8372 65.7012 49.4596 79.0729 40.1851 81.6559Z" fill="#FFB902"/>
<ellipse cx="85.948" cy="41.7674" rx="26.1483" ry="17.4322" transform="rotate(74.4372 85.948 41.7674)" fill="#FFB902"/>
<circle cx="42.7398" cy="66.623" r="5.5" transform="rotate(-15.5628 42.7398 66.623)" fill="white"/>
<ellipse cx="42.7395" cy="66.623" rx="1.5" ry="3.5" transform="rotate(-15.5628 42.7395 66.623)" fill="#0C3A2D"/>
<circle cx="87.0533" cy="54.2814" r="5.5" transform="rotate(-15.5628 87.0533 54.2814)" fill="white"/>
<path d="M61.7769 75.6427L55.7637 54.0516" stroke="#0C3A2D" stroke-linecap="round" stroke-linejoin="round"/>
<path d="M76.1705 71.6339C76.1705 71.6339 72.6333 58.9333 70.1572 50.0428" stroke="#0C3A2D" stroke-linecap="round" stroke-linejoin="round"/>
<path d="M76.3228 100.027C76.3228 100.027 72.7856 87.3268 70.3096 78.4363" stroke="#0C3A2D" stroke-linecap="round" stroke-linejoin="round"/>
<path d="M61.7764 75.6427L76.1704 71.6339C77.2774 75.6087 74.9526 79.7283 70.9778 80.8353C67.003 81.9424 62.8834 79.6175 61.7764 75.6427Z" fill="#0C3A2D" stroke="#0C3A2D" stroke-linecap="round" stroke-linejoin="round"/>
<path d="M83.52 98.023L69.126 102.032" stroke="#0C3A2D" stroke-linecap="round" stroke-linejoin="round"/>
<circle cx="94.6206" cy="79.6622" r="4.98062" transform="rotate(-15.5628 94.6206 79.6622)" fill="#0C3A2D" stroke="#0C3A2D" stroke-linecap="round" stroke-linejoin="round"/>
<circle cx="50.3081" cy="92.0037" r="4.98062" transform="rotate(-15.5628 50.3081 92.0037)" fill="#0C3A2D" stroke="#0C3A2D" stroke-linecap="round" stroke-linejoin="round"/>
<path d="M27.7056 36.9409C30.3555 36.2029 31.9054 33.4565 31.1674 30.8067C29.2331 30.6466 24.6059 30.9571 21.5714 33.4792C22.3094 36.1291 25.0558 37.6789 27.7056 36.9409Z" fill="#0C3A2D" stroke="#0C3A2D" stroke-linecap="round" stroke-linejoin="round"/>
<path d="M97.4291 36.7446C98.3388 39.3406 101.181 40.7076 103.777 39.7979C103.81 37.8573 103.198 33.2603 100.482 30.3971C97.8865 31.3068 96.5195 34.1487 97.4291 36.7446Z" fill="#0C3A2D" stroke="#0C3A2D" stroke-linecap="round" stroke-linejoin="round"/>
<path d="M65.3415 37.8963C67.994 37.1677 69.5537 34.4269 68.8252 31.7744C66.8915 31.6074 62.2632 31.9014 59.2196 34.4126C59.9482 37.0651 62.689 38.6248 65.3415 37.8963Z" fill="#0C3A2D" stroke="#0C3A2D" stroke-linecap="round" stroke-linejoin="round"/>
<path d="M92.5841 104.32C90.2854 105.831 89.6466 108.919 91.1573 111.218C93.0483 110.781 97.3606 109.074 99.4818 105.747C97.9711 103.448 94.8829 102.809 92.5841 104.32Z" fill="#0C3A2D" stroke="#0C3A2D" stroke-linecap="round" stroke-linejoin="round"/>
<path d="M62.9849 113.466C60.237 113.589 58.1096 115.917 58.2333 118.665C60.0822 119.256 64.6608 119.993 68.1845 118.217C68.0608 115.469 65.7328 113.342 62.9849 113.466Z" fill="#0C3A2D" stroke="#0C3A2D" stroke-linecap="round" stroke-linejoin="round"/>
<path d="M27.2163 87.0115C26.368 84.3948 23.559 82.9613 20.9424 83.8097C20.8635 85.749 21.3675 90.3591 24.0145 93.2854C26.6312 92.437 28.0647 89.6281 27.2163 87.0115Z" fill="#0C3A2D" stroke="#0C3A2D" stroke-linecap="round" stroke-linejoin="round"/>
<circle cx="53.8667" cy="52.6042" r="4.98062" transform="rotate(-15.5628 53.8667 52.6042)" fill="#0C3A2D" stroke="#0C3A2D" stroke-linecap="round" stroke-linejoin="round"/>
<circle cx="105.046" cy="61.1878" r="4.98062" transform="rotate(-15.5628 105.046 61.1878)" fill="#0C3A2D" stroke="#0C3A2D" stroke-linecap="round" stroke-linejoin="round"/>
<path d="M29.0799 58.7094C24.6784 61.9436 22.4405 60.5585 20.8301 54.7761C18.1801 45.2613 20.0624 40.1716 24.707 38.878C27.5971 38.0731 31.8258 38.3488 34.4758 47.8635C35.2801 50.7517 33.4814 55.4752 29.0799 58.7094Z" fill="#BB8A52"/>
<path d="M88.251 40.3832C93.6907 40.8766 94.8904 38.5341 93.28 32.7517C90.6301 23.2369 86.3878 19.8528 81.7432 21.1464C78.8531 21.9513 75.3756 24.3732 78.0256 33.888C78.8299 36.7761 82.8114 39.8898 88.251 40.3832Z" fill="#BB8A52"/>
<ellipse cx="87.053" cy="54.2814" rx="1.5" ry="3.5" transform="rotate(-15.5628 87.053 54.2814)" fill="#0C3A2D"/>
<mask id="path-25-outside-1" maskUnits="userSpaceOnUse" x="93.5801" y="74.965" width="60.7455" height="59.6745" fill="black">
<rect fill="white" x="93.5801" y="74.965" width="60.7455" height="59.6745"/>
<path fill-rule="evenodd" clip-rule="evenodd" d="M124.059 113.336C119.472 115.493 114.719 115.324 111.972 112.476C108.127 108.49 109.669 100.766 115.415 95.2245C121.151 89.6927 128.907 88.4261 132.759 92.386C134.946 93.9767 136.878 96.359 138.167 99.3064C141.186 106.216 139.521 113.615 134.446 115.833C131.152 117.272 127.231 116.174 124.059 113.336Z"/>
</mask>
<path fill-rule="evenodd" clip-rule="evenodd" d="M124.059 113.336C119.472 115.493 114.719 115.324 111.972 112.476C108.127 108.49 109.669 100.766 115.415 95.2245C121.151 89.6927 128.907 88.4261 132.759 92.386C134.946 93.9767 136.878 96.359 138.167 99.3064C141.186 106.216 139.521 113.615 134.446 115.833C131.152 117.272 127.231 116.174 124.059 113.336Z" fill="#BB8A52"/>
<path d="M124.059 113.336L129.393 107.374L125.446 103.843L120.654 106.097L124.059 113.336ZM111.972 112.476L106.213 118.03L111.972 112.476ZM115.415 95.2245L120.969 100.983L115.415 95.2245ZM132.759 92.386L127.024 97.9639L127.501 98.4536L128.053 98.8555L132.759 92.386ZM138.167 99.3064L130.836 102.51L130.836 102.51L138.167 99.3064ZM134.446 115.833L131.243 108.502L131.243 108.502L134.446 115.833ZM120.654 106.097C119.348 106.711 118.349 106.831 117.813 106.798C117.331 106.769 117.472 106.655 117.73 106.923L106.213 118.03C112.344 124.387 121.33 123.461 127.464 120.575L120.654 106.097ZM117.73 106.923C118.14 107.348 117.669 107.369 117.942 106C118.208 104.666 119.121 102.765 120.969 100.983L109.861 89.4662C105.963 93.2262 103.232 97.9577 102.252 102.868C101.279 107.742 101.959 113.618 106.213 118.03L117.73 106.923ZM120.969 100.983C122.812 99.2044 124.742 98.3606 126.085 98.141C127.465 97.9152 127.434 98.385 127.024 97.9639L138.494 86.8082C134.233 82.4271 128.397 81.5502 123.502 82.3507C118.57 83.1574 113.753 85.7128 109.861 89.4662L120.969 100.983ZM128.053 98.8555C129.012 99.553 130.077 100.773 130.836 102.51L145.497 96.1027C143.68 91.9448 140.88 88.4005 137.465 85.9166L128.053 98.8555ZM130.836 102.51C131.735 104.568 131.799 106.409 131.537 107.572C131.274 108.74 130.888 108.657 131.243 108.502L137.65 123.163C143.079 120.79 146.063 115.899 147.147 111.086C148.231 106.267 147.618 100.955 145.497 96.1027L130.836 102.51ZM131.243 108.502C131.422 108.424 131.456 108.505 131.156 108.43C130.811 108.343 130.167 108.067 129.393 107.374L118.724 119.298C123.351 123.438 130.544 126.269 137.65 123.163L131.243 108.502Z" fill="#FFB902" mask="url(#path-25-outside-1)"/>
<path d="M113.622 93.1689C119.523 93.1646 122.734 87.4565 122.731 82.6062C122.727 77.7559 119.507 72.0526 113.606 72.057C107.705 72.0613 104.493 77.7693 104.497 82.6196C104.501 87.47 107.72 93.1733 113.622 93.1689Z" fill="#BB8A52" stroke="#FFB902" stroke-width="8"/>
<path d="M127.14 88.4538C133.042 88.4494 136.253 82.7414 136.249 77.8911C136.246 73.0408 133.026 67.3375 127.125 67.3418C121.223 67.3462 118.012 73.0542 118.016 77.9045C118.019 82.7548 121.239 88.4581 127.14 88.4538Z" fill="#BB8A52" stroke="#FFB902" stroke-width="8"/>
<path d="M138.373 92.1609C144.098 93.5924 148.601 88.8372 149.778 84.1317C150.954 79.4263 149.219 73.111 143.494 71.6795C137.769 70.248 133.265 75.0033 132.089 79.7087C130.912 84.4142 132.648 90.7294 138.373 92.1609Z" fill="#BB8A52" stroke="#FFB902" stroke-width="8"/>
<path d="M146.558 106.323C152.374 107.318 156.506 102.236 157.323 97.4553C158.141 92.6744 155.933 86.5084 150.116 85.5136C144.299 84.5188 140.168 89.6008 139.351 94.3817C138.533 99.1626 140.741 105.329 146.558 106.323Z" fill="#BB8A52" stroke="#FFB902" stroke-width="8"/>
<ellipse cx="122.375" cy="102.442" rx="10.0272" ry="14.4544" transform="rotate(46.0364 122.375 102.442)" fill="#BB8A52"/>
<ellipse cx="128.979" cy="103.322" rx="10.0272" ry="13.6533" transform="rotate(-23.6077 128.979 103.322)" fill="#BB8A52"/>
<ellipse cx="113.614" cy="82.6129" rx="5.11686" ry="6.55598" transform="rotate(-0.0421835 113.614 82.6129)" fill="#BB8A52"/>
<ellipse cx="127.132" cy="77.8978" rx="5.11686" ry="6.55598" transform="rotate(-0.0421835 127.132 77.8978)" fill="#BB8A52"/>
<ellipse cx="140.933" cy="81.9202" rx="5.11686" ry="6.55598" transform="rotate(14.0384 140.933 81.9202)" fill="#BB8A52"/>
<ellipse cx="148.337" cy="95.9185" rx="5.11686" ry="6.55598" transform="rotate(9.70457 148.337 95.9185)" fill="#BB8A52"/>
</svg>
