<svg width="93" height="204" viewBox="0 0 93 204" fill="none" xmlns="http://www.w3.org/2000/svg">
<ellipse cx="46.2383" cy="18.7748" rx="13" ry="18.5" fill="#ECEDCF"/>
<ellipse cx="72.7338" cy="51.4979" rx="13" ry="18.5" transform="rotate(24.4698 72.7338 51.4979)" fill="#ECEDCF"/>
<ellipse cx="65.6641" cy="96.4721" rx="13" ry="18.5" transform="rotate(24.1207 65.6641 96.4721)" fill="#ECEDCF"/>
<ellipse cx="22.1247" cy="50.144" rx="9.89507" ry="15.4521" transform="rotate(-19.4925 22.1247 50.144)" fill="#ECEDCF"/>
<ellipse cx="14.9573" cy="92.6096" rx="10.1969" ry="15.9235" transform="rotate(-18.4825 14.9573 92.6096)" fill="#ECEDCF"/>
<path d="M46.2383 14.2748C50.2383 39.1081 37.5383 147.875 16.7383 202.275" stroke="#B0B233" stroke-width="2" stroke-linecap="round" stroke-linejoin="round"/>
<path d="M21.7383 50.7748C23.2383 56.1081 29.6383 68.7748 43.2383 76.7748" stroke="#B0B233" stroke-width="2" stroke-linecap="round" stroke-linejoin="round"/>
<path d="M15.2383 95.2748C16.7383 100.608 23.1383 113.275 36.7383 121.275" stroke="#B0B233" stroke-width="2" stroke-linecap="round" stroke-linejoin="round"/>
<path d="M71.7383 54.2748C67.9049 61.1081 56.8383 75.2748 43.2383 77.2748" stroke="#B0B233" stroke-width="2" stroke-linecap="round" stroke-linejoin="round"/>
<path d="M65.7383 99.2748C61.9049 106.108 50.8383 120.275 37.2383 122.275" stroke="#B0B233" stroke-width="2" stroke-linecap="round" stroke-linejoin="round"/>
</svg>
