<svg width="12" height="42" viewBox="0 0 12 42" fill="none" xmlns="http://www.w3.org/2000/svg">
<path d="M5.46968 41.5303C5.76257 41.8232 6.23744 41.8232 6.53034 41.5303L11.3033 36.7574C11.5962 36.4645 11.5962 35.9896 11.3033 35.6967C11.0104 35.4038 10.5355 35.4038 10.2426 35.6967L6.00001 39.9393L1.75737 35.6967C1.46447 35.4038 0.989599 35.4038 0.696706 35.6967C0.403813 35.9896 0.403813 36.4645 0.696706 36.7574L5.46968 41.5303ZM6.75001 1C6.75001 0.585785 6.41422 0.25 6.00001 0.25C5.58579 0.25 5.25001 0.585785 5.25001 1L6.75001 1ZM6.75001 41L6.75001 1L5.25001 1L5.25001 41L6.75001 41Z" fill="#0C3A2D"/>
</svg>
