<svg width="42" height="12" viewBox="0 0 42 12" fill="none" xmlns="http://www.w3.org/2000/svg">
<path d="M0.46967 5.46966C0.176777 5.76255 0.176777 6.23743 0.46967 6.53032L5.24264 11.3033C5.53553 11.5962 6.01041 11.5962 6.3033 11.3033C6.59619 11.0104 6.59619 10.5355 6.3033 10.2426L2.06066 5.99999L6.3033 1.75735C6.59619 1.46446 6.59619 0.989584 6.3033 0.696691C6.01041 0.403797 5.53553 0.403797 5.24264 0.69669L0.46967 5.46966ZM41 6.74999C41.4142 6.74999 41.75 6.4142 41.75 5.99999C41.75 5.58578 41.4142 5.24999 41 5.24999L41 6.74999ZM1 6.74999L41 6.74999L41 5.24999L1 5.24999L1 6.74999Z" fill="#F2F2F2"/>
</svg>
