<svg width="115" height="103" viewBox="0 0 115 103" fill="none" xmlns="http://www.w3.org/2000/svg">
<path d="M26.2148 66.1335L47.2621 80.2614L39.1105 92.4054C35.2092 98.2175 27.3349 99.7664 21.5229 95.8651C15.7108 91.9638 14.1619 84.0896 18.0632 78.2775L26.2148 66.1335Z" fill="#C4C4C4"/>
<path d="M1.00235 23.6193L22.766 5.33417L28.0265 28.7132L1.00235 23.6193Z" fill="#6D9773"/>
<path d="M82.2308 75.3122L65.7298 52.1666L89.4525 48.7773L82.2308 75.3122Z" fill="#6D9773"/>
<path d="M17.6003 53.9176L27.4921 27.2689L43.6138 44.9985L17.6003 53.9176Z" fill="#FFB902"/>
<path d="M115.14 60.639L89.3605 48.6644L108.313 34L115.14 60.639Z" fill="#E14A4A"/>
<path d="M77.6099 5.73252C78.2558 4.73492 79.588 4.44974 80.5856 5.09556C81.5832 5.74137 81.8684 7.07362 81.2226 8.07122L37.7101 75.2856L34.0975 72.9469L77.6099 5.73252Z" fill="#BB8A52"/>
<path d="M48.4275 73.1143L43.1918 45.1753L66.1397 52.0779L48.4275 73.1143Z" fill="#B0B233"/>
</svg>
