<svg width="40" height="40" viewBox="0 0 40 40" fill="none" xmlns="http://www.w3.org/2000/svg">
<rect width="40" height="40" rx="20" fill="#F2F2F2"/>
<path fill-rule="evenodd" clip-rule="evenodd" d="M33.7328 12.7777C33.8909 12.1564 33.7328 11.6904 32.7844 11.6904H29.6232C28.991 11.6904 28.5168 12.0011 28.2006 12.6223C27.2523 14.7968 25.9878 16.9713 24.4072 18.8351C23.6169 19.6117 23.3007 19.767 22.9846 19.767C22.8265 19.767 22.5104 19.6117 22.5104 18.8351V12.7777C22.5104 12.0011 22.3524 11.6904 21.562 11.6904H16.6621C16.1879 11.6904 15.8718 12.0011 15.8718 12.3117C15.8718 13.0883 16.9782 13.2436 17.1363 15.2628V19.767C17.1363 20.6989 16.9783 21.0096 16.5041 21.0096C15.3976 21.0096 12.8686 17.2819 11.4461 12.933C11.13 12.1564 10.8138 11.6904 10.0235 11.6904H6.86229C5.91392 11.6904 5.75586 12.1564 5.75586 12.6223C5.75586 13.3989 6.86229 17.4372 10.6558 22.7181C12.7106 25.9798 16.1879 27.9989 20.1395 28.3096C22.0362 28.3096 22.3524 27.8436 22.3524 27.067V24.2713C22.3524 23.3394 22.5104 23.184 23.1427 23.184C23.6169 23.184 24.4072 23.3394 26.3039 25.2032C28.3587 27.2223 28.8329 28.1542 29.9393 28.1542H33.1006C34.0489 28.1542 34.3651 27.6883 34.207 26.9117C33.5748 25.5138 32.6264 24.4266 31.52 23.3394C30.7296 22.5628 29.7813 21.6308 29.3071 21.1649C28.8329 20.5436 28.991 20.3883 29.3071 19.767C29.6232 19.767 33.4167 14.4862 33.7328 12.7777Z" fill="#0C3A2D"/>
</svg>
